<svg width="166" height="40" viewBox="0 0 166 40" fill="none" xmlns="http://www.w3.org/2000/svg">
<g id="Logo" clip-path="url(#clip0_7538_45832)">
<path id="Vector" d="M50.0547 28.6087H61.7152V25.0965H54.1991V11.8672H50.0547V28.6087Z" fill="#060B13"/>
<path id="Vector_2" d="M68.6227 26.2657C66.9602 26.2657 66.0939 24.8139 66.0939 22.6364C66.0939 20.4588 66.9602 18.9837 68.6227 18.9837C70.2851 18.9837 71.1749 20.4588 71.1749 22.6364C71.1749 24.8139 70.2851 26.2657 68.6227 26.2657ZM68.6461 28.9817C72.5095 28.9817 75.0383 26.2422 75.0383 22.6364C75.0383 19.0305 72.5095 16.291 68.6461 16.291C64.8061 16.291 62.2305 19.0305 62.2305 22.6364C62.2305 26.2422 64.8061 28.9817 68.6461 28.9817Z" fill="#060B13"/>
<path id="Vector_3" d="M81.7245 32.7515C83.504 32.7515 85.0728 32.3534 86.1265 31.4168C87.0865 30.5505 87.7187 29.2393 87.7187 27.4364V16.6188H84.066V17.9066H84.0191C83.3167 16.8998 82.2396 16.2676 80.6474 16.2676C77.6738 16.2676 75.6133 18.7495 75.6133 22.2617C75.6133 25.9378 78.1186 27.9515 80.8113 27.9515C82.263 27.9515 83.1762 27.3661 83.8786 26.57H83.9723V27.7642C83.9723 29.2159 83.2933 30.0588 81.6777 30.0588C80.4133 30.0588 79.7811 29.5203 79.5704 28.8881H75.8708C76.2455 31.3934 78.423 32.7515 81.7245 32.7515ZM81.7011 25.1183C80.2728 25.1183 79.3362 23.9476 79.3362 22.1447C79.3362 20.3183 80.2728 19.1476 81.7011 19.1476C83.2933 19.1476 84.1362 20.5056 84.1362 22.1212C84.1362 23.8071 83.3635 25.1183 81.7011 25.1183Z" fill="#060B13"/>
<path id="Vector_4" d="M95.232 26.2657C93.5696 26.2657 92.7033 24.8139 92.7033 22.6364C92.7033 20.4588 93.5696 18.9837 95.232 18.9837C96.8945 18.9837 97.7838 20.4588 97.7838 22.6364C97.7838 24.8139 96.8945 26.2657 95.232 26.2657ZM95.2554 28.9817C99.1185 28.9817 101.647 26.2422 101.647 22.6364C101.647 19.0305 99.1185 16.291 95.2554 16.291C91.4154 16.291 88.8398 19.0305 88.8398 22.6364C88.8398 26.2422 91.4154 28.9817 95.2554 28.9817Z" fill="#060B13"/>
<path id="Vector_5" d="M102.762 28.6087H106.578V16.6204H102.762V28.6087ZM102.762 14.9579H106.578V11.8672H102.762V14.9579Z" fill="#060B13"/>
<path id="Vector_6" d="M108.234 32.5642H112.051V27.3661H112.098C112.847 28.3729 113.948 28.9817 115.493 28.9817C118.63 28.9817 120.714 26.4998 120.714 22.6129C120.714 19.0071 118.771 16.2676 115.587 16.2676C113.948 16.2676 112.777 16.9934 111.957 18.0705H111.887V16.6188H108.234V32.5642ZM114.509 26.0315C112.87 26.0315 111.934 24.6968 111.934 22.7534C111.934 20.81 112.777 19.3349 114.439 19.3349C116.078 19.3349 116.851 20.6929 116.851 22.7534C116.851 24.7905 115.961 26.0315 114.509 26.0315Z" fill="#060B13"/>
<path id="Vector_7" d="M126.928 28.9817C130.065 28.9817 132.384 27.6237 132.384 25.0012C132.384 21.9339 129.902 21.3954 127.794 21.0442C126.272 20.7632 124.914 20.6461 124.914 19.8032C124.914 19.0539 125.64 18.7027 126.577 18.7027C127.63 18.7027 128.356 19.0305 128.497 20.1076H132.009C131.822 17.7427 129.995 16.2676 126.6 16.2676C123.767 16.2676 121.425 17.5788 121.425 20.1076C121.425 22.9173 123.65 23.4793 125.734 23.8305C127.326 24.1115 128.778 24.2286 128.778 25.3056C128.778 26.0783 128.052 26.4998 126.904 26.4998C125.64 26.4998 124.844 25.9144 124.704 24.7203H121.098C121.215 27.3661 123.416 28.9817 126.928 28.9817Z" fill="#060B13"/>
<path id="Vector_8" d="M137.566 28.9606C139.229 28.9606 140.282 28.305 141.149 27.1343H141.219V28.6094H144.872V16.6211H141.055V23.3177C141.055 24.746 140.259 25.7294 138.948 25.7294C137.73 25.7294 137.145 25.0035 137.145 23.6923V16.6211H133.352V24.4884C133.352 27.1577 134.803 28.9606 137.566 28.9606Z" fill="#060B13"/>
<path id="Vector_9" d="M146.531 28.6071H150.348V21.8871C150.348 20.4588 151.05 19.452 152.244 19.452C153.392 19.452 153.93 20.2012 153.93 21.489V28.6071H157.747V21.8871C157.747 20.4588 158.426 19.452 159.643 19.452C160.791 19.452 161.329 20.2012 161.329 21.489V28.6071H165.146V20.81C165.146 18.1173 163.788 16.2676 161.072 16.2676C159.526 16.2676 158.239 16.9232 157.302 18.3749H157.255C156.646 17.0871 155.452 16.2676 153.883 16.2676C152.151 16.2676 151.003 17.0871 150.254 18.3281H150.184V16.6188H146.531V28.6071Z" fill="#060B13"/>
<path id="Vector_10" fill-rule="evenodd" clip-rule="evenodd" d="M19.6372 39.3388C30.4135 39.3388 39.1493 30.6029 39.1493 19.8266C39.1493 9.05035 30.4135 0.314453 19.6372 0.314453C8.86089 0.314453 0.125 9.05035 0.125 19.8266C0.125 30.6029 8.86089 39.3388 19.6372 39.3388ZM22.6489 15.3901C24.3121 13.7268 24.3121 11.0301 22.6489 9.3668C20.9855 7.70351 18.2889 7.70351 16.6255 9.3668C14.9623 11.0301 14.9623 13.7268 16.6255 15.3901L19.6372 18.4017L22.6489 15.3901ZM24.0737 22.8383C25.7371 24.5016 28.4337 24.5016 30.0971 22.8383C31.7603 21.175 31.7603 18.4783 30.0971 16.815C28.4337 15.1518 25.7371 15.1518 24.0737 16.815L21.0621 19.8267L24.0737 22.8383ZM22.6489 30.2865C24.3121 28.6232 24.3121 25.9265 22.6489 24.2632L19.6372 21.2516L16.6255 24.2632C14.9623 25.9265 14.9623 28.6232 16.6255 30.2865C18.2889 31.9498 20.9855 31.9498 22.6489 30.2865ZM9.17732 22.8383C7.51406 21.175 7.51406 18.4783 9.17732 16.815C10.8407 15.1518 13.5374 15.1518 15.2007 16.815L18.2123 19.8267L15.2007 22.8383C13.5374 24.5016 10.8407 24.5016 9.17732 22.8383Z" fill="#060B13"/>
</g>
<defs>
<clipPath id="clip0_7538_45832">
<rect width="165.854" height="40" fill="white" transform="translate(0.0273438)"/>
</clipPath>
</defs>
</svg>
