<svg width="189.415625" height="189.415625" viewBox="0 0 234.375 234.375" class="looka-1j8o68f">
  <defs id="SvgjsDefs2920"></defs>
  <g id="SvgjsG2921" featurekey="rootContainer" transform="matrix(4.6875,0,0,4.6875,0,0)" fill="#250e60">
    <circle cx="25" cy="25" r="25"></circle>
  </g>
  <g id="SvgjsG2922" featurekey="nameFeature-0" transform="matrix(2.8237948319332347,0,0,2.8237948319332347,40.87048314441895,39.78915146766366)" fill="#eafff7">
    <path d="M12.84 38.08 l1.24 1.16 c-1.52 0.92 -2.52 1.4 -3.6 1.4 c-4.8 0 -6.6 -2.84 -6.6 -6.16 l0 -11.52 l-3.48 0 l0 -1 l3.48 -1.24 l0 -0.08 l2.28 -6.4 l2.36 0 l0 6.92 l4.72 0 l0.04 1.8 l-4.76 0 l0 9.52 c0 2.04 -0.12 4.12 0.96 5.2 c0.68 0.68 2.6 0.84 3.36 0.4 z M27.32 21.64 l1.44 5.4 c0.28 1.16 2.4 0.88 3.4 -0.52 c2.16 -3 -2.2 -6.72 -6.28 -6.16 c-5.08 0.68 -10.2 3.84 -10.2 9.72 c0 6.72 4.64 10.28 9.96 10.52 c4.8 0.2 7.6 -2.04 9.52 -5.6 l-0.8 -0.72 c-1.88 1.96 -6.52 3.28 -9.08 2.52 c-3.6 -1.12 -5.16 -3.44 -5.52 -7.08 c-0.48 -4.52 3.44 -8.84 7.56 -8.08 z M50.84 26.08 c-0.72 -3 -2.24 -4.48 -6.4 -3.92 c-1.64 0.24 -4.8 2.04 -2.32 4.32 c0.84 0.76 3.36 1.64 5.88 2.72 c3.52 1.52 5.52 3.6 5.52 6.24 c0 3.08 -2.72 5.4 -8.52 5.4 c-3.92 0 -6.12 -1.04 -7.6 -2.44 l0 -4.4 l1.32 0 c0.52 2.32 1.68 4.92 6.12 4.92 c1.36 0 4.24 -1.08 3.44 -3.48 c-0.76 -2.24 -3.52 -3.2 -5.6 -4.24 c-2.24 -1.12 -5.52 -2.44 -5.52 -5.2 c0 -3.84 2.6 -5.32 7.16 -5.76 c2.56 -0.24 5.36 0.32 7.76 2.2 c0 0 0.12 2.52 0.12 3.64 l-1.36 0 z"></path>
  </g>
</svg>
