<svg width="167" height="40" viewBox="0 0 167 40" fill="none" xmlns="http://www.w3.org/2000/svg">
<g id="Logo" clip-path="url(#clip0_7538_45821)">
<path id="Vector" d="M50.7656 27.4524H62.4261V23.9402H54.91V10.7109H50.7656V27.4524Z" fill="#060B13"/>
<path id="Vector_2" d="M69.3375 25.1094C67.6751 25.1094 66.8087 23.6577 66.8087 21.4801C66.8087 19.3026 67.6751 17.8274 69.3375 17.8274C70.9999 17.8274 71.8897 19.3026 71.8897 21.4801C71.8897 23.6577 70.9999 25.1094 69.3375 25.1094ZM69.3609 27.8255C73.2243 27.8255 75.7531 25.086 75.7531 21.4801C75.7531 17.8743 73.2243 15.1348 69.3609 15.1348C65.5209 15.1348 62.9453 17.8743 62.9453 21.4801C62.9453 25.086 65.5209 27.8255 69.3609 27.8255Z" fill="#060B13"/>
<path id="Vector_3" d="M82.4393 31.5952C84.2189 31.5952 85.7876 31.1972 86.8413 30.2606C87.8013 29.3943 88.4335 28.083 88.4335 26.2801V15.4625H84.7808V16.7504H84.734C84.0315 15.7435 82.9545 15.1113 81.3623 15.1113C78.3886 15.1113 76.3281 17.5933 76.3281 21.1055C76.3281 24.7816 78.8335 26.7952 81.5262 26.7952C82.9779 26.7952 83.8911 26.2099 84.5935 25.4138H84.6872V26.6079C84.6872 28.0596 84.0081 28.9025 82.3925 28.9025C81.1281 28.9025 80.4959 28.364 80.2852 27.7318H76.5857C76.9603 30.2372 79.1379 31.5952 82.4393 31.5952ZM82.4159 23.9621C80.9876 23.9621 80.0511 22.7913 80.0511 20.9884C80.0511 19.1621 80.9876 17.9913 82.4159 17.9913C84.0081 17.9913 84.8511 19.3494 84.8511 20.965C84.8511 22.6508 84.0784 23.9621 82.4159 23.9621Z" fill="#060B13"/>
<path id="Vector_4" d="M95.943 25.1094C94.2805 25.1094 93.4142 23.6577 93.4142 21.4801C93.4142 19.3026 94.2805 17.8274 95.943 17.8274C97.6054 17.8274 98.4952 19.3026 98.4952 21.4801C98.4952 23.6577 97.6054 25.1094 95.943 25.1094ZM95.9664 27.8255C99.8298 27.8255 102.359 25.086 102.359 21.4801C102.359 17.8743 99.8298 15.1348 95.9664 15.1348C92.1264 15.1348 89.5508 17.8743 89.5508 21.4801C89.5508 25.086 92.1264 27.8255 95.9664 27.8255Z" fill="#060B13"/>
<path id="Vector_5" d="M103.473 27.4524H107.289V15.4641H103.473V27.4524ZM103.473 13.8017H107.289V10.7109H103.473V13.8017Z" fill="#060B13"/>
<path id="Vector_6" d="M108.945 31.4079H112.762V26.2099H112.809C113.558 27.2167 114.658 27.8255 116.204 27.8255C119.341 27.8255 121.425 25.3435 121.425 21.4567C121.425 17.8508 119.482 15.1113 116.298 15.1113C114.658 15.1113 113.488 15.8372 112.668 16.9143H112.598V15.4625H108.945V31.4079ZM115.22 24.8752C113.581 24.8752 112.645 23.5406 112.645 21.5972C112.645 19.6538 113.488 18.1786 115.15 18.1786C116.789 18.1786 117.562 19.5367 117.562 21.5972C117.562 23.6343 116.672 24.8752 115.22 24.8752Z" fill="#060B13"/>
<path id="Vector_7" d="M127.639 27.8255C130.776 27.8255 133.094 26.4674 133.094 23.845C133.094 20.7777 130.612 20.2391 128.505 19.8879C126.983 19.6069 125.625 19.4899 125.625 18.6469C125.625 17.8977 126.351 17.5465 127.288 17.5465C128.341 17.5465 129.067 17.8743 129.208 18.9513H132.72C132.533 16.5865 130.706 15.1113 127.311 15.1113C124.478 15.1113 122.136 16.4225 122.136 18.9513C122.136 21.7611 124.361 22.323 126.445 22.6743C128.037 22.9552 129.489 23.0723 129.489 24.1494C129.489 24.9221 128.763 25.3435 127.615 25.3435C126.351 25.3435 125.555 24.7582 125.414 23.564H121.809C121.926 26.2099 124.127 27.8255 127.639 27.8255Z" fill="#060B13"/>
<path id="Vector_8" d="M138.281 27.8044C139.943 27.8044 140.997 27.1487 141.863 25.978H141.934V27.4531H145.586V15.4648H141.77V22.1614C141.77 23.5897 140.974 24.5731 139.663 24.5731C138.445 24.5731 137.86 23.8473 137.86 22.5361V15.4648H134.066V23.3322C134.066 26.0014 135.518 27.8044 138.281 27.8044Z" fill="#060B13"/>
<path id="Vector_9" d="M147.246 27.4508H151.063V20.7308C151.063 19.3025 151.765 18.2957 152.959 18.2957C154.107 18.2957 154.645 19.045 154.645 20.3328V27.4508H158.462V20.7308C158.462 19.3025 159.141 18.2957 160.358 18.2957C161.506 18.2957 162.044 19.045 162.044 20.3328V27.4508H165.861V19.6538C165.861 16.9611 164.503 15.1113 161.787 15.1113C160.241 15.1113 158.953 15.7669 158.017 17.2186H157.97C157.361 15.9308 156.167 15.1113 154.598 15.1113C152.866 15.1113 151.718 15.9308 150.969 17.1718H150.899V15.4625H147.246V27.4508Z" fill="#060B13"/>
<path id="Vector_10" fill-rule="evenodd" clip-rule="evenodd" d="M20.3521 39.1591C31.1283 39.1591 39.8643 30.4232 39.8643 19.6469C39.8643 8.87068 31.1283 0.134766 20.3521 0.134766C9.57573 0.134766 0.839844 8.87068 0.839844 19.6469C0.839844 30.4232 9.57573 39.1591 20.3521 39.1591ZM26.4392 9.22437C26.7355 8.17189 25.7141 7.54953 24.7813 8.21408L11.76 17.4904C10.7483 18.2111 10.9075 19.6469 11.999 19.6469H15.4279V19.6204H22.1106L16.6654 21.5417L14.2649 30.0696C13.9686 31.1221 14.9899 31.7444 15.9228 31.0798L28.9442 21.8035C29.9558 21.0828 29.7965 19.6469 28.7051 19.6469H23.5053L26.4392 9.22437Z" fill="#060B13"/>
</g>
<defs>
<clipPath id="clip0_7538_45821">
<rect width="165.854" height="40" fill="white" transform="translate(0.171875)"/>
</clipPath>
</defs>
</svg>
