<svg width="164" height="40" viewBox="0 0 164 40" fill="none" xmlns="http://www.w3.org/2000/svg">
<g clip-path="url(#clip0_8201_2616)">
<path d="M48.0742 28.2454H59.7347V24.7332H52.2186V11.5039H48.0742V28.2454Z" fill="#060B13"/>
<path d="M66.6461 25.9043C64.9837 25.9043 64.1173 24.4526 64.1173 22.2751C64.1173 20.0975 64.9837 18.6224 66.6461 18.6224C68.3085 18.6224 69.1983 20.0975 69.1983 22.2751C69.1983 24.4526 68.3085 25.9043 66.6461 25.9043ZM66.6695 28.6204C70.5329 28.6204 73.0617 25.8809 73.0617 22.2751C73.0617 18.6692 70.5329 15.9297 66.6695 15.9297C62.8295 15.9297 60.2539 18.6692 60.2539 22.2751C60.2539 25.8809 62.8295 28.6204 66.6695 28.6204Z" fill="#060B13"/>
<path d="M79.7479 32.3902C81.5275 32.3902 83.0962 31.9921 84.1499 31.0555C85.1099 30.1892 85.7421 28.878 85.7421 27.075V16.2575H82.0894V17.5453H82.0426C81.3401 16.5384 80.2631 15.9062 78.6709 15.9062C75.6972 15.9062 73.6367 18.3882 73.6367 21.9004C73.6367 25.5765 76.1421 27.5902 78.8348 27.5902C80.2865 27.5902 81.1996 27.0048 81.9021 26.2087H81.9957V27.4028C81.9957 28.8545 81.3167 29.6975 79.7011 29.6975C78.4367 29.6975 77.8045 29.1589 77.5938 28.5267H73.8943C74.2689 31.0321 76.4465 32.3902 79.7479 32.3902ZM79.7245 24.757C78.2962 24.757 77.3596 23.5862 77.3596 21.7833C77.3596 19.957 78.2962 18.7862 79.7245 18.7862C81.3167 18.7862 82.1596 20.1443 82.1596 21.7599C82.1596 23.4458 81.387 24.757 79.7245 24.757Z" fill="#060B13"/>
<path d="M93.2516 25.9043C91.5891 25.9043 90.7228 24.4526 90.7228 22.2751C90.7228 20.0975 91.5891 18.6224 93.2516 18.6224C94.914 18.6224 95.8038 20.0975 95.8038 22.2751C95.8038 24.4526 94.914 25.9043 93.2516 25.9043ZM93.275 28.6204C97.1384 28.6204 99.6667 25.8809 99.6667 22.2751C99.6667 18.6692 97.1384 15.9297 93.275 15.9297C89.435 15.9297 86.8594 18.6692 86.8594 22.2751C86.8594 25.8809 89.435 28.6204 93.275 28.6204Z" fill="#060B13"/>
<path d="M100.781 28.2454H104.598V16.2571H100.781V28.2454ZM100.781 14.5946H104.598V11.5039H100.781V14.5946Z" fill="#060B13"/>
<path d="M106.254 32.2028H110.07V27.0048H110.117C110.867 28.0116 111.967 28.6204 113.512 28.6204C116.65 28.6204 118.734 26.1384 118.734 22.2516C118.734 18.6458 116.79 15.9062 113.606 15.9062C111.967 15.9062 110.796 16.6321 109.977 17.7092H109.907V16.2575H106.254V32.2028ZM112.529 25.6702C110.89 25.6702 109.953 24.3355 109.953 22.3921C109.953 20.4487 110.796 18.9736 112.459 18.9736C114.098 18.9736 114.87 20.3316 114.87 22.3921C114.87 24.4292 113.981 25.6702 112.529 25.6702Z" fill="#060B13"/>
<path d="M124.947 28.6204C128.085 28.6204 130.403 27.2623 130.403 24.6399C130.403 21.5726 127.921 21.0341 125.814 20.6828C124.292 20.4019 122.934 20.2848 122.934 19.4419C122.934 18.6926 123.66 18.3414 124.596 18.3414C125.65 18.3414 126.376 18.6692 126.516 19.7463H130.028C129.841 17.3814 128.015 15.9062 124.62 15.9062C121.786 15.9062 119.445 17.2175 119.445 19.7463C119.445 22.556 121.669 23.118 123.753 23.4692C125.345 23.7502 126.797 23.8672 126.797 24.9443C126.797 25.717 126.071 26.1384 124.924 26.1384C123.66 26.1384 122.864 25.5531 122.723 24.3589H119.117C119.234 27.0048 121.435 28.6204 124.947 28.6204Z" fill="#060B13"/>
<path d="M135.59 28.5973C137.252 28.5973 138.306 27.9417 139.172 26.771H139.242V28.2461H142.895V16.2578H139.078V22.9544C139.078 24.3827 138.282 25.3661 136.971 25.3661C135.754 25.3661 135.168 24.6403 135.168 23.329V16.2578H131.375V24.1251C131.375 26.7944 132.827 28.5973 135.59 28.5973Z" fill="#060B13"/>
<path d="M144.555 28.2458H148.371V21.5258C148.371 20.0975 149.074 19.0906 150.268 19.0906C151.415 19.0906 151.954 19.8399 151.954 21.1277V28.2458H155.77V21.5258C155.77 20.0975 156.449 19.0906 157.667 19.0906C158.814 19.0906 159.353 19.8399 159.353 21.1277V28.2458H163.169V20.4487C163.169 17.756 161.811 15.9062 159.095 15.9062C157.55 15.9062 156.262 16.5619 155.325 18.0136H155.279C154.67 16.7258 153.476 15.9062 151.907 15.9062C150.174 15.9062 149.027 16.7258 148.278 17.9667H148.207V16.2575H144.555V28.2458Z" fill="#060B13"/>
<path d="M24.7891 1.92855L20.952 0.900391L17.7185 12.9683L14.7991 2.07331L10.962 3.10146L14.1161 14.8727L6.25989 7.01647L3.45092 9.82543L12.0682 18.4428L1.33675 15.5673L0.308594 19.4044L12.0341 22.5462C11.8998 21.9672 11.8288 21.3639 11.8288 20.744C11.8288 16.3561 15.3859 12.799 19.7738 12.799C24.1617 12.799 27.7188 16.3561 27.7188 20.744C27.7188 21.3599 27.6486 21.9595 27.516 22.5351L38.1723 25.3904L39.2004 21.5533L27.4283 18.399L38.1605 15.5233L37.1323 11.6862L25.3607 14.8404L33.2169 6.98421L30.4079 4.17525L21.9102 12.673L24.7891 1.92855Z" fill="#060B13"/>
<path d="M27.5077 22.5801C27.1788 23.9709 26.4842 25.2204 25.5312 26.2214L33.2513 33.9415L36.0602 31.1326L27.5077 22.5801Z" fill="#060B13"/>
<path d="M25.4525 26.3008C24.488 27.2859 23.2692 28.021 21.9023 28.3998L24.7115 38.8837L28.5486 37.8555L25.4525 26.3008Z" fill="#060B13"/>
<path d="M21.7584 28.4384C21.1242 28.6015 20.4596 28.6881 19.7746 28.6881C19.0407 28.6881 18.3301 28.5886 17.6555 28.4023L14.8438 38.8958L18.6808 39.9239L21.7584 28.4384Z" fill="#060B13"/>
<path d="M17.5199 28.3644C16.1739 27.9668 14.9768 27.2223 14.032 26.2344L6.29297 33.9734L9.10193 36.7824L17.5199 28.3644Z" fill="#060B13"/>
<path d="M13.9696 26.1666C13.041 25.1725 12.3646 23.9397 12.0426 22.5703L1.35156 25.435L2.37971 29.2721L13.9696 26.1666Z" fill="#060B13"/>
</g>
<defs>
<clipPath id="clip0_8201_2616">
<rect width="163.902" height="40" fill="white"/>
</clipPath>
</defs>
</svg>
