<?xml version="1.0" encoding="UTF-8"?>
<svg id="Layer_1" xmlns="http://www.w3.org/2000/svg" version="1.1" viewBox="0 0 1576.22 271.46">
  <!-- Generator: Adobe Illustrator 29.3.1, SVG Export Plug-In . SVG Version: 2.1.0 Build 151)  -->
  <defs>
    <style>
      .st0 {
        fill: #2f266b;
      }
    </style>
  </defs>
  <g>
    <path class="st0" d="M301.94,86.48v-22.57h98.29v22.57h-35.35v94.22h-27.59v-94.22s-35.35,0-35.35,0Z"/>
    <path class="st0" d="M441.78,130.69v50.01h-27.36V63.91h26.81v51.26h-1.72c2.14-6.95,5.5-12.55,10.07-16.81,4.57-4.26,10.73-6.39,18.46-6.39,6.11,0,11.44,1.36,15.99,4.08s8.07,6.56,10.58,11.52c2.51,4.96,3.76,10.74,3.76,17.32v55.81h-27.36v-50.48c0-4.91-1.26-8.77-3.76-11.56-2.51-2.79-6.01-4.19-10.5-4.19-2.93,0-5.53.64-7.8,1.92s-4.04,3.12-5.29,5.53c-1.25,2.4-1.88,5.33-1.88,8.78h0Z"/>
    <path class="st0" d="M557.23,182.34c-9.15,0-17.04-1.81-23.67-5.45-6.64-3.63-11.72-8.82-15.25-15.56s-5.29-14.79-5.29-24.14,1.76-16.88,5.29-23.67c3.53-6.79,8.53-12.08,15.01-15.87s14.11-5.68,22.89-5.68c6.17,0,11.82.97,16.97,2.9,5.15,1.93,9.61,4.79,13.4,8.58,3.79,3.79,6.71,8.45,8.78,13.99,2.06,5.54,3.1,11.94,3.1,19.2v6.9h-75.72v-15.91h62.71l-12.78,3.76c0-4.08-.61-7.58-1.84-10.5-1.23-2.93-3.04-5.17-5.45-6.74-2.4-1.57-5.38-2.35-8.94-2.35s-6.56.8-9.01,2.39c-2.46,1.59-4.33,3.82-5.6,6.66-1.28,2.85-1.92,6.18-1.92,9.99v11.44c0,4.49.74,8.24,2.23,11.25s3.57,5.25,6.23,6.74c2.67,1.49,5.77,2.23,9.33,2.23,2.46,0,4.69-.34,6.7-1.02,2.01-.68,3.74-1.7,5.17-3.06,1.44-1.36,2.52-3,3.25-4.94l24.38,4c-1.46,5.02-3.99,9.39-7.56,13.13-3.58,3.74-8.1,6.62-13.56,8.66-5.46,2.04-11.74,3.06-18.85,3.06h0Z"/>
    <path class="st0" d="M700.59,182.26c-10.5,0-19.92-2.32-28.26-6.98-8.33-4.65-14.92-11.44-19.75-20.38s-7.25-19.78-7.25-32.53,2.44-23.75,7.33-32.69,11.51-15.73,19.87-20.38,17.71-6.98,28.06-6.98c6.95,0,13.38.95,19.28,2.86,5.9,1.91,11.13,4.69,15.68,8.35,4.55,3.66,8.24,8.14,11.09,13.44,2.85,5.3,4.69,11.35,5.53,18.15h-27.98c-.47-2.87-1.33-5.45-2.59-7.72-1.25-2.27-2.86-4.22-4.82-5.84-1.96-1.62-4.25-2.85-6.86-3.68-2.61-.84-5.49-1.25-8.62-1.25-5.7,0-10.62,1.41-14.77,4.23-4.16,2.82-7.34,6.89-9.56,12.19s-3.33,11.74-3.33,19.32,1.14,14.33,3.41,19.63c2.27,5.3,5.46,9.29,9.56,11.95,4.1,2.67,8.95,4,14.54,4,3.14,0,6.01-.42,8.62-1.26s4.91-2.06,6.9-3.68c1.98-1.62,3.63-3.57,4.94-5.84,1.31-2.27,2.19-4.85,2.66-7.72h27.98c-.52,5.23-2.01,10.36-4.47,15.4-2.46,5.04-5.87,9.64-10.23,13.79-4.36,4.16-9.63,7.46-15.79,9.92-6.17,2.45-13.22,3.68-21.16,3.68v.02h-.01Z"/>
    <path class="st0" d="M807.98,182.34c-9.15,0-17.01-1.89-23.59-5.68s-11.64-9.07-15.17-15.83c-3.53-6.77-5.29-14.64-5.29-23.63s1.76-16.94,5.29-23.71c3.53-6.77,8.58-12.04,15.17-15.83,6.58-3.79,14.45-5.68,23.59-5.68s17.01,1.89,23.59,5.68,11.63,9.07,15.13,15.83c3.5,6.77,5.25,14.67,5.25,23.71s-1.75,16.87-5.25,23.63c-3.5,6.77-8.54,12.05-15.13,15.83-6.58,3.79-14.45,5.68-23.59,5.68ZM807.98,161.42c3.5,0,6.45-1.02,8.86-3.06,2.4-2.04,4.22-4.88,5.45-8.54,1.23-3.66,1.84-7.92,1.84-12.78s-.62-9.1-1.84-12.74c-1.23-3.63-3.04-6.44-5.45-8.43-2.4-1.98-5.36-2.98-8.86-2.98s-6.46.99-8.86,2.98c-2.41,1.99-4.22,4.79-5.45,8.43-1.23,3.63-1.84,7.88-1.84,12.74s.61,9.12,1.84,12.78c1.23,3.66,3.04,6.51,5.45,8.54,2.4,2.04,5.36,3.06,8.86,3.06Z"/>
    <path class="st0" d="M898.43,181.95c-6.48,0-12.38-1.68-17.71-5.06-5.33-3.37-9.56-8.39-12.7-15.05s-4.7-14.96-4.7-24.89,1.63-18.69,4.9-25.36c3.27-6.66,7.55-11.6,12.86-14.81,5.3-3.21,11.01-4.82,17.12-4.82,4.65,0,8.62.8,11.92,2.39,3.29,1.59,6,3.62,8.11,6.07,2.12,2.46,3.72,5.02,4.82,7.68h.63v-44.21h27.28v116.79h-26.96v-14.19h-.94c-1.15,2.61-2.81,5.09-4.98,7.45s-4.86,4.27-8.07,5.76c-3.21,1.49-7.07,2.23-11.56,2.23l-.02.02h0ZM907.76,160.63c3.45,0,6.42-.98,8.9-2.94,2.48-1.96,4.38-4.72,5.68-8.27,1.31-3.55,1.96-7.71,1.96-12.46s-.65-9.05-1.96-12.58-3.2-6.24-5.68-8.15-5.45-2.86-8.9-2.86-6.47.98-8.9,2.94c-2.43,1.96-4.27,4.7-5.52,8.23-1.26,3.53-1.88,7.67-1.88,12.42s.63,8.84,1.88,12.42,3.1,6.35,5.52,8.31c2.43,1.96,5.4,2.94,8.9,2.94h0Z"/>
    <path class="st0" d="M1009.89,182.34c-9.14,0-17.04-1.81-23.67-5.45-6.64-3.63-11.72-8.82-15.25-15.56s-5.29-14.79-5.29-24.14,1.76-16.88,5.29-23.67c3.53-6.79,8.53-12.08,15.01-15.87s14.11-5.68,22.89-5.68c6.16,0,11.82.97,16.97,2.9s9.61,4.79,13.4,8.58,6.71,8.45,8.78,13.99c2.06,5.54,3.09,11.94,3.09,19.2v6.9h-75.72v-15.91h62.71l-12.78,3.76c0-4.08-.62-7.58-1.84-10.5-1.23-2.93-3.04-5.17-5.45-6.74-2.4-1.57-5.38-2.35-8.93-2.35s-6.56.8-9.01,2.39c-2.46,1.59-4.33,3.82-5.6,6.66-1.28,2.85-1.92,6.18-1.92,9.99v11.44c0,4.49.75,8.24,2.23,11.25,1.49,3.01,3.57,5.25,6.23,6.74,2.67,1.49,5.77,2.23,9.33,2.23,2.46,0,4.69-.34,6.7-1.02,2.01-.68,3.74-1.7,5.17-3.06,1.44-1.36,2.52-3,3.25-4.94l24.38,4c-1.46,5.02-3.99,9.39-7.56,13.13-3.58,3.74-8.1,6.62-13.56,8.66-5.46,2.04-11.75,3.06-18.85,3.06h0Z"/>
    <path class="st0" d="M1143.06,182.74c-8.41,0-15.71-1.36-21.91-4.08-6.19-2.72-11.04-6.52-14.54-11.4-3.5-4.88-5.49-10.59-5.96-17.13h15.29c.42,4.39,1.91,8.01,4.47,10.86,2.56,2.85,5.84,4.96,9.84,6.35s8.27,2.08,12.82,2.08c5.28,0,10.02-.86,14.23-2.59,4.21-1.72,7.54-4.15,9.99-7.29s3.68-6.77,3.68-10.89c0-3.76-1.06-6.82-3.17-9.17-2.12-2.35-4.93-4.28-8.43-5.8-3.5-1.51-7.34-2.85-11.52-4l-14.11-4c-9.41-2.66-16.72-6.48-21.95-11.44s-7.84-11.31-7.84-19.05c0-6.58,1.78-12.35,5.33-17.28,3.55-4.94,8.36-8.77,14.42-11.48,6.06-2.72,12.86-4.08,20.38-4.08s14.47,1.36,20.38,4.08c5.9,2.72,10.57,6.42,13.99,11.09,3.42,4.68,5.24,9.97,5.45,15.87h-14.58c-.68-5.69-3.4-10.1-8.15-13.21-4.76-3.11-10.61-4.66-17.56-4.66-5.02,0-9.42.82-13.21,2.47-3.79,1.65-6.73,3.89-8.82,6.74s-3.13,6.1-3.13,9.76c0,4.08,1.27,7.36,3.8,9.84,2.53,2.48,5.54,4.42,9.01,5.8,3.47,1.39,6.62,2.47,9.45,3.25l11.68,3.21c3.14.84,6.6,1.99,10.39,3.45s7.41,3.41,10.86,5.84c3.45,2.43,6.28,5.51,8.5,9.25s3.33,8.32,3.33,13.76c0,6.38-1.66,12.12-4.98,17.24-3.32,5.12-8.14,9.17-14.46,12.15s-13.98,4.47-22.97,4.47h0Z"/>
    <path class="st0" d="M1280.47,213.46h-14.11v-46.32h-1.1c-.94,1.62-2.34,3.65-4.19,6.08-1.86,2.43-4.47,4.6-7.84,6.51-3.37,1.91-7.85,2.86-13.44,2.86-7.26,0-13.69-1.86-19.28-5.57-5.59-3.71-9.95-8.96-13.09-15.75s-4.7-14.84-4.7-24.14,1.58-17.26,4.74-24.02c3.16-6.77,7.54-11.98,13.13-15.64s12.02-5.49,19.28-5.49c5.7,0,10.22.94,13.56,2.82,3.34,1.88,5.92,4.01,7.72,6.39,1.8,2.38,3.17,4.35,4.11,5.92h1.57v-14.03h13.64v120.39h0ZM1241.9,169.96c5.33,0,9.83-1.4,13.48-4.19,3.66-2.79,6.43-6.67,8.31-11.64,1.88-4.96,2.82-10.69,2.82-17.17s-.93-12.14-2.78-16.97-4.61-8.61-8.27-11.33-8.18-4.08-13.56-4.08-10.15,1.44-13.83,4.31c-3.68,2.87-6.44,6.76-8.27,11.64-1.83,4.89-2.74,10.36-2.74,16.42s.93,11.67,2.78,16.66,4.64,8.96,8.35,11.91,8.28,4.43,13.72,4.43h0Z"/>
    <path class="st0" d="M1334.94,181.79c-5.9,0-11.09-1.22-15.56-3.65-4.47-2.43-7.94-6.1-10.42-11.01-2.48-4.91-3.72-11.05-3.72-18.42v-55.65h14.11v54.48c0,6.74,1.78,12.02,5.33,15.83,3.55,3.82,8.39,5.72,14.5,5.72,4.18,0,7.93-.91,11.25-2.74s5.94-4.51,7.88-8.03c1.93-3.53,2.9-7.77,2.9-12.74v-52.52h14.19v87.63h-13.64v-21.24h1.88c-2.72,8.2-6.57,13.98-11.56,17.32-4.99,3.35-10.7,5.02-17.13,5.02h0Z"/>
    <path class="st0" d="M1424.69,182.74c-5.54,0-10.57-1.05-15.09-3.14s-8.11-5.15-10.78-9.17c-2.66-4.02-4-8.91-4-14.66,0-5.02.99-9.09,2.98-12.23,1.98-3.14,4.64-5.6,7.95-7.41,3.32-1.8,6.99-3.15,11.01-4.04s8.07-1.59,12.15-2.12c5.22-.68,9.48-1.2,12.78-1.57,3.29-.36,5.74-.99,7.33-1.88s2.39-2.4,2.39-4.55v-.47c0-3.66-.68-6.75-2.04-9.29-1.36-2.53-3.4-4.48-6.11-5.84-2.72-1.36-6.11-2.04-10.19-2.04s-7.76.65-10.74,1.96-5.4,2.94-7.25,4.9-3.25,3.96-4.19,6l-13.56-4.47c2.25-5.33,5.28-9.5,9.09-12.5,3.81-3,8.02-5.13,12.62-6.39,4.6-1.25,9.14-1.88,13.64-1.88,2.93,0,6.26.35,9.99,1.06,3.74.71,7.34,2.1,10.82,4.19,3.47,2.09,6.35,5.19,8.62,9.29s3.41,9.58,3.41,16.42v57.77h-13.87v-11.91h-.94c-.99,2.04-2.59,4.14-4.78,6.31-2.19,2.17-5.04,3.99-8.54,5.45-3.5,1.46-7.73,2.19-12.7,2.19v.02ZM1427.12,170.27c5.22,0,9.64-1.02,13.25-3.06s6.35-4.69,8.23-7.96,2.82-6.68,2.82-10.23v-12.15c-.58.68-1.83,1.29-3.76,1.84s-4.14,1.03-6.62,1.45-4.88.77-7.21,1.06-4.17.51-5.53.67c-3.4.42-6.57,1.14-9.52,2.15-2.95,1.02-5.32,2.51-7.09,4.47-1.78,1.96-2.67,4.61-2.67,7.96,0,3.03.78,5.56,2.35,7.6,1.57,2.04,3.71,3.58,6.43,4.62,2.72,1.05,5.83,1.57,9.33,1.57h0Z"/>
    <path class="st0" d="M1523.14,182.58c-7.26,0-13.69-1.86-19.28-5.57-5.59-3.71-9.95-8.96-13.09-15.75s-4.7-14.84-4.7-24.14,1.58-17.26,4.74-24.02c3.16-6.77,7.54-11.98,13.13-15.64s12.02-5.49,19.28-5.49c5.7,0,10.22.94,13.56,2.82,3.34,1.88,5.92,4.01,7.72,6.39,1.8,2.38,3.17,4.35,4.11,5.92h1.1v-43.19h14.11v116.79h-13.64v-13.56h-1.57c-.94,1.62-2.34,3.65-4.19,6.08-1.86,2.43-4.47,4.6-7.84,6.51-3.37,1.91-7.85,2.86-13.44,2.86h0ZM1525.25,169.96c5.33,0,9.83-1.4,13.48-4.19,3.66-2.79,6.43-6.67,8.31-11.64,1.88-4.96,2.82-10.69,2.82-17.17s-.93-12.14-2.78-16.97-4.61-8.61-8.27-11.33-8.18-4.08-13.56-4.08-10.15,1.44-13.83,4.31c-3.68,2.87-6.44,6.76-8.27,11.64-1.83,4.89-2.74,10.36-2.74,16.42s.93,11.67,2.78,16.66,4.64,8.96,8.35,11.91,8.28,4.43,13.72,4.43h0Z"/>
  </g>
  <g>
    <path class="st0" d="M197.14,6.43h-121.3c-34.97,0-63.44,28.44-63.44,63.41v121.33c0,34.97,28.47,63.44,63.44,63.44h121.3c1.18,0,.77-.03,1.95-.11-2.68-7.85-2.76-8.09-4.41-12.96h-118.85c-27.77,0-50.37-22.6-50.37-50.37v-121.33c0-27.77,22.6-50.37,50.37-50.37h121.3c27.8,0,50.37,22.6,50.37,50.37v114.98c4.56,2.07,8.6,3.91,13.07,6.08v-121.06c0-34.97-28.44-63.41-63.44-63.41h0Z"/>
    <g>
      <path class="st0" d="M52.47,73.05v19.23h27.77v94.09h18.63v-94.09h27.74v-19.23H52.47Z"/>
      <g>
        <path class="st0" d="M171.14,93.93v-21.72l-49.58,34.16v18.57l49.58,34.02v-21.61l-33.73-21.17v-.98l33.73-21.26h0Z"/>
        <path class="st0" d="M171.06,102.09v21.58l33.73,21.2v.95l-33.73,21.26v21.75l49.61-34.16v-18.6l-49.61-33.99h0Z"/>
      </g>
    </g>
    <path class="st0" d="M273.2,219.02c1.04.62,1.29,2.13.54,3.08-.6.78-1.81,1.05-2.67,1.43-5.59,2.48-11.2,4.92-16.78,7.36-.47.21-.97.39-1.45.59l8.04,8.55c4.03,4.29,8.03,8.55,12.03,12.89.84.91,2.09,1.71,1.97,3.12-.1,1.17-1.4,1.95-2.19,2.7-1.68,1.59-3.34,3.25-5.04,4.8-.93.84-1.84,1.9-3.21,1.33-.87-.36-1.02-.78-1.6-1.42-5.35-5.84-10.62-11.84-15.97-17.65-1.39-1.66-2.88-3.21-4.29-4.84-.19,0-.12.17-.22.32-.8,1.22-1.45,2.68-2.15,3.98-2.21,4.15-4.44,8.29-6.7,12.39-.39.7-.73,1.57-1.18,2.23-.92,1.33-2.53,1.24-3.54.08-7.69-22.4-15.1-44.9-22.73-67.32-.19-.69-.28-1.09,0-1.75.47-1.11,1.68-1.55,2.81-1.16,1.35.46,2.99,1.44,4.34,2.05,18.36,8.29,36.72,16.56,55.03,24.96,1.53.7,3.53,1.42,4.96,2.28h0Z"/>
  </g>
</svg>