<?xml version="1.0" encoding="UTF-8" standalone="no" ?>
<!DOCTYPE svg PUBLIC "-//W3C//DTD SVG 1.1//EN" "http://www.w3.org/Graphics/SVG/1.1/DTD/svg11.dtd">
<svg xmlns="http://www.w3.org/2000/svg" xmlns:xlink="http://www.w3.org/1999/xlink" version="1.1" width="1080" height="1080" viewBox="0 0 1080 1080" xml:space="preserve">
<desc>Created with Fabric.js 5.2.4</desc>
<defs>
</defs>
<g transform="matrix(1 0 0 1 540 540)" id="5db23c84-e70d-44a6-8f0a-8b22fe520ceb"  >
</g>
<g transform="matrix(1 0 0 1 540 540)" id="741ac8ec-0e92-4549-9f0e-4c9a1be2da7d"  >
<rect style="stroke: none; stroke-width: 1; stroke-dasharray: none; stroke-linecap: butt; stroke-dashoffset: 0; stroke-linejoin: miter; stroke-miterlimit: 4; fill: rgb(255,255,255); fill-rule: nonzero; opacity: 1; visibility: hidden;" vector-effect="non-scaling-stroke"  x="-540" y="-540" rx="0" ry="0" width="1080" height="1080" />
</g>
<g transform="matrix(4.01 0 0 4.01 540 540)"  >
<path style="stroke: rgb(67,32,150); stroke-width: 0; stroke-dasharray: none; stroke-linecap: butt; stroke-dashoffset: 0; stroke-linejoin: miter; stroke-miterlimit: 4; fill: rgb(67,32,150); fill-rule: nonzero; opacity: 1;" vector-effect="non-scaling-stroke"  transform=" translate(-133.25, -133.25)" d="M 150.036 266.494 C 149.772 266.494 149.519 266.48800000000006 149.244 266.47600000000006 C 143.142 266.13900000000007 137.912 262.00200000000007 136.198 256.1290000000001 L 110.131 167.1020000000001 L 14.927999999999997 148.2350000000001 C 8.913999999999998 147.0410000000001 4.3139999999999965 142.1760000000001 3.4519999999999964 136.1120000000001 C 2.5939999999999963 130.0500000000001 5.652999999999997 124.0960000000001 11.101999999999997 121.28000000000011 L 242.143 1.617 C 247.5 -1.175 254.057 -0.29 258.518 3.8 C 262.99199999999996 7.901 264.40299999999996 14.350000000000001 262.08 19.946 L 163.337 257.601 C 161.097 263.018 155.836 266.494 150.036 266.494 z" stroke-linecap="round" />
</g>
<g transform="matrix(NaN NaN NaN NaN 0 0)"  >
<g style=""   >
</g>
</g>
<g transform="matrix(NaN NaN NaN NaN 0 0)"  >
<g style=""   >
</g>
</g>
<g transform="matrix(NaN NaN NaN NaN 0 0)"  >
<g style=""   >
</g>
</g>
<g transform="matrix(NaN NaN NaN NaN 0 0)"  >
<g style=""   >
</g>
</g>
</svg>