<?xml version="1.0" encoding="UTF-8" standalone="no" ?>
<!DOCTYPE svg PUBLIC "-//W3C//DTD SVG 1.1//EN" "http://www.w3.org/Graphics/SVG/1.1/DTD/svg11.dtd">
<svg xmlns="http://www.w3.org/2000/svg" xmlns:xlink="http://www.w3.org/1999/xlink" version="1.1" width="1080" height="1080" viewBox="0 0 1080 1080" xml:space="preserve">
<desc>Created with Fabric.js 5.2.4</desc>
<defs>
</defs>
<g transform="matrix(1 0 0 1 540 540)" id="2285fb07-a482-411c-9e4b-4b320723dde0"  >
<rect style="stroke: none; stroke-width: 1; stroke-dasharray: none; stroke-linecap: butt; stroke-dashoffset: 0; stroke-linejoin: miter; stroke-miterlimit: 4; fill: rgb(255,255,255); fill-rule: nonzero; opacity: 1; visibility: hidden;" vector-effect="non-scaling-stroke"  x="-540" y="-540" rx="0" ry="0" width="1080" height="1080" />
</g>
<g transform="matrix(1 0 0 1 540 540)" id="d207c790-aa1a-400e-a160-4062c825a5ed"  >
</g>
<g transform="matrix(5.47 0 0 5.47 539.88 540.12)" id="93897437-4d7c-4a9e-8b84-a224bff2e8e4"  >
<path style="stroke: rgb(0,0,0); stroke-width: 0; stroke-dasharray: none; stroke-linecap: butt; stroke-dashoffset: 0; stroke-linejoin: miter; stroke-miterlimit: 4; fill: rgb(67,32,150); fill-rule: nonzero; opacity: 1;" vector-effect="non-scaling-stroke"  transform=" translate(-95.83, -95.83)" d="M 95.833 0 C 42.991 0 0 42.99 0 95.833 C 0 148.676 42.991 191.667 95.833 191.667 C 148.675 191.667 191.666 148.676 191.666 95.833 C 191.666 42.99000000000001 148.676 0 95.833 0 z M 150.862 79.646 L 90.655 139.853 C 88.095 142.413 84.69200000000001 143.822 81.072 143.822 C 77.452 143.822 74.049 142.413 71.489 139.853 L 40.804 109.168 C 38.244 106.608 36.834 103.20500000000001 36.834 99.58500000000001 C 36.834 95.96400000000001 38.244 92.561 40.804 90.001 C 43.363 87.441 46.766000000000005 86.031 50.387 86.031 C 54.007 86.031 57.411 87.441 59.97 90.00200000000001 L 81.071 111.102 L 131.694 60.479000000000006 C 134.254 57.919000000000004 137.65699999999998 56.510000000000005 141.277 56.510000000000005 C 144.897 56.510000000000005 148.29999999999998 57.919000000000004 150.85999999999999 60.479000000000006 C 156.146 65.765 156.146 74.362 150.862 79.646 z" stroke-linecap="round" />
</g>
<g transform="matrix(NaN NaN NaN NaN 0 0)"  >
<g style=""   >
</g>
</g>
<g transform="matrix(NaN NaN NaN NaN 0 0)"  >
<g style=""   >
</g>
</g>
</svg>